<?xml version="1.0" encoding="UTF-8" standalone="no"?>
<!DOCTYPE svg PUBLIC "-//W3C//DTD SVG 1.1//EN"
 "http://www.w3.org/Graphics/SVG/1.1/DTD/svg11.dtd">
<!-- Generated by graphviz version 2.43.0 (0)
 -->
<!-- Title: %3 Pages: 1 -->
<svg width="905pt" height="223pt"
 viewBox="0.00 0.00 905.00 222.50" xmlns="http://www.w3.org/2000/svg" xmlns:xlink="http://www.w3.org/1999/xlink">
<g id="graph0" class="graph" transform="scale(1 1) rotate(0) translate(4 218.5)">
<title>%3</title>
<polygon fill="#ffffff" stroke="transparent" points="-4,4 -4,-218.5 901,-218.5 901,4 -4,4"/>
<!-- W2P1(3) -->
<g id="node1" class="node">
<title>W2P1(3)</title>
<polygon fill="#ffffff" stroke="black" points="203,-208 0,-208 0,-116 203,-116 203,-208"/>
<polygon fill="none" stroke="black" points="0.5,-185 0.5,-208 203.5,-208 203.5,-185 0.5,-185"/>
<text text-anchor="start" x="74.5" y="-192.8" font-family="arial" font-size="14.00">W2P1(3)</text>
<polygon fill="none" stroke="black" points="0.5,-162 0.5,-185 114.5,-185 114.5,-162 0.5,-162"/>
<text text-anchor="start" x="4.5" y="-169.8" font-family="arial" font-size="14.00">F2 0.25in (spade)</text>
<polygon fill="none" stroke="black" points="114.5,-162 114.5,-185 164.5,-185 164.5,-162 114.5,-162"/>
<text text-anchor="start" x="118.5" y="-169.8" font-family="arial" font-size="14.00">female</text>
<polygon fill="none" stroke="black" points="164.5,-162 164.5,-185 203.5,-185 203.5,-162 164.5,-162"/>
<text text-anchor="start" x="168.5" y="-169.8" font-family="arial" font-size="14.00">1&#45;pin</text>
<polygon fill="none" stroke="black" points="0.5,-139 0.5,-162 113.5,-162 113.5,-139 0.5,-139"/>
<text text-anchor="start" x="42" y="-146.8" font-family="arial" font-size="14.00">POS</text>
<polygon fill="none" stroke="black" points="113.5,-139 113.5,-162 203.5,-162 203.5,-139 113.5,-139"/>
<text text-anchor="start" x="154.5" y="-146.8" font-family="arial" font-size="14.00">1</text>
<polygon fill="none" stroke="black" points="0.5,-116 0.5,-139 203.5,-139 203.5,-116 0.5,-116"/>
<text text-anchor="start" x="25" y="-123.8" font-family="arial" font-size="14.00">Mates with B1_POSJ1(3)</text>
</g>
<!-- W2 -->
<g id="node4" class="node">
<title>W2</title>
<polygon fill="#ffffff" stroke="black" stroke-dasharray="5,2" points="613,-214.5 347,-214.5 347,-57.5 613,-57.5 613,-214.5"/>
<polygon fill="none" stroke="black" points="347,-191 347,-214 613,-214 613,-191 347,-191"/>
<text text-anchor="start" x="469" y="-198.8" font-family="arial" font-size="14.00">W2</text>
<polygon fill="none" stroke="black" points="347,-168 347,-191 613,-191 613,-168 347,-168"/>
<text text-anchor="start" x="380.5" y="-175.8" font-family="arial" font-size="14.00">SouthWire: 22975701, 22973201</text>
<polygon fill="none" stroke="black" points="347,-145 347,-168 417,-168 417,-145 347,-145"/>
<text text-anchor="start" x="374.5" y="-152.8" font-family="arial" font-size="14.00">2x</text>
<polygon fill="none" stroke="black" points="417,-145 417,-168 524,-168 524,-145 417,-145"/>
<text text-anchor="start" x="444.5" y="-152.8" font-family="arial" font-size="14.00">10 AWG</text>
<polygon fill="none" stroke="black" points="524,-145 524,-168 613,-168 613,-145 524,-145"/>
<text text-anchor="start" x="551" y="-152.8" font-family="arial" font-size="14.00">0.2 m</text>
<text text-anchor="start" x="397" y="-131.8" font-family="arial" font-size="14.00"> </text>
<text text-anchor="start" x="349.5" y="-112.8" font-family="arial" font-size="14.00">W2P1(3):1:POS</text>
<text text-anchor="start" x="453" y="-112.8" font-family="arial" font-size="14.00"> &#160;&#160;&#160;&#160;RD &#160;&#160;&#160;</text>
<text text-anchor="start" x="511.5" y="-112.8" font-family="arial" font-size="14.00">W2P3(5):1:POS</text>
<polygon fill="#000000" stroke="transparent" points="347,-105 347,-107 613,-107 613,-105 347,-105"/>
<polygon fill="#ff0000" stroke="transparent" points="347,-103 347,-105 613,-105 613,-103 347,-103"/>
<polygon fill="#000000" stroke="transparent" points="347,-101 347,-103 613,-103 613,-101 347,-101"/>
<text text-anchor="start" x="349" y="-87.8" font-family="arial" font-size="14.00">W2P2(4):1:NEG</text>
<text text-anchor="start" x="454" y="-87.8" font-family="arial" font-size="14.00"> &#160;&#160;&#160;&#160;BK &#160;&#160;&#160;</text>
<text text-anchor="start" x="511" y="-87.8" font-family="arial" font-size="14.00">W2P3(5):2:NEG</text>
<polygon fill="#000000" stroke="transparent" points="347,-80 347,-82 613,-82 613,-80 347,-80"/>
<polygon fill="#000000" stroke="transparent" points="347,-78 347,-80 613,-80 613,-78 347,-78"/>
<polygon fill="#000000" stroke="transparent" points="347,-76 347,-78 613,-78 613,-76 347,-76"/>
<text text-anchor="start" x="397" y="-62.8" font-family="arial" font-size="14.00"> </text>
</g>
<!-- W2P1(3)&#45;&#45;W2 -->
<g id="edge1" class="edge">
<title>W2P1(3):e&#45;&#45;W2:w</title>
<path fill="none" stroke="#000000" stroke-width="2" d="M203,-148C268.23,-149.59 277.86,-103.59 347,-102"/>
<path fill="none" stroke="#ff0000" stroke-width="2" d="M203,-150C270.19,-150 279.81,-104 347,-104"/>
<path fill="none" stroke="#000000" stroke-width="2" d="M203,-152C272.14,-150.41 281.77,-104.41 347,-106"/>
</g>
<!-- W2P3(5) -->
<g id="node2" class="node">
<title>W2P3(5)</title>
<polygon fill="#ffffff" stroke="black" points="897,-184 757,-184 757,-46 897,-46 897,-184"/>
<polygon fill="none" stroke="black" points="757,-161 757,-184 897,-184 897,-161 757,-161"/>
<text text-anchor="start" x="799.5" y="-168.8" font-family="arial" font-size="14.00">W2P3(5)</text>
<polygon fill="none" stroke="black" points="757,-138 757,-161 897,-161 897,-138 757,-138"/>
<text text-anchor="start" x="802.5" y="-145.8" font-family="arial" font-size="14.00">AMASS</text>
<polygon fill="none" stroke="black" points="757,-115 757,-138 808,-138 808,-115 757,-115"/>
<text text-anchor="start" x="761" y="-122.8" font-family="arial" font-size="14.00">XTC90</text>
<polygon fill="none" stroke="black" points="808,-115 808,-138 858,-138 858,-115 808,-115"/>
<text text-anchor="start" x="812" y="-122.8" font-family="arial" font-size="14.00">female</text>
<polygon fill="none" stroke="black" points="858,-115 858,-138 897,-138 897,-115 858,-115"/>
<text text-anchor="start" x="862" y="-122.8" font-family="arial" font-size="14.00">2&#45;pin</text>
<polygon fill="none" stroke="black" points="757,-92 757,-115 816,-115 816,-92 757,-92"/>
<text text-anchor="start" x="782.5" y="-99.8" font-family="arial" font-size="14.00">1</text>
<polygon fill="none" stroke="black" points="816,-92 816,-115 897,-115 897,-92 816,-92"/>
<text text-anchor="start" x="841.5" y="-99.8" font-family="arial" font-size="14.00">POS</text>
<polygon fill="none" stroke="black" points="757,-69 757,-92 816,-92 816,-69 757,-69"/>
<text text-anchor="start" x="782.5" y="-76.8" font-family="arial" font-size="14.00">2</text>
<polygon fill="none" stroke="black" points="816,-69 816,-92 897,-92 897,-69 816,-69"/>
<text text-anchor="start" x="841" y="-76.8" font-family="arial" font-size="14.00">NEG</text>
<polygon fill="none" stroke="black" points="757,-46 757,-69 897,-69 897,-46 757,-46"/>
<text text-anchor="start" x="765" y="-53.8" font-family="arial" font-size="14.00">Mates with W3P1(5)</text>
</g>
<!-- W2P2(4) -->
<g id="node3" class="node">
<title>W2P2(4)</title>
<polygon fill="#ffffff" stroke="black" points="203,-92 0,-92 0,0 203,0 203,-92"/>
<polygon fill="none" stroke="black" points="0.5,-69 0.5,-92 203.5,-92 203.5,-69 0.5,-69"/>
<text text-anchor="start" x="74.5" y="-76.8" font-family="arial" font-size="14.00">W2P2(4)</text>
<polygon fill="none" stroke="black" points="0.5,-46 0.5,-69 114.5,-69 114.5,-46 0.5,-46"/>
<text text-anchor="start" x="4.5" y="-53.8" font-family="arial" font-size="14.00">F2 0.25in (spade)</text>
<polygon fill="none" stroke="black" points="114.5,-46 114.5,-69 164.5,-69 164.5,-46 114.5,-46"/>
<text text-anchor="start" x="118.5" y="-53.8" font-family="arial" font-size="14.00">female</text>
<polygon fill="none" stroke="black" points="164.5,-46 164.5,-69 203.5,-69 203.5,-46 164.5,-46"/>
<text text-anchor="start" x="168.5" y="-53.8" font-family="arial" font-size="14.00">1&#45;pin</text>
<polygon fill="none" stroke="black" points="0.5,-23 0.5,-46 113.5,-46 113.5,-23 0.5,-23"/>
<text text-anchor="start" x="41.5" y="-30.8" font-family="arial" font-size="14.00">NEG</text>
<polygon fill="none" stroke="black" points="113.5,-23 113.5,-46 203.5,-46 203.5,-23 113.5,-23"/>
<text text-anchor="start" x="154.5" y="-30.8" font-family="arial" font-size="14.00">1</text>
<polygon fill="none" stroke="black" points="0.5,0 0.5,-23 203.5,-23 203.5,0 0.5,0"/>
<text text-anchor="start" x="25" y="-7.8" font-family="arial" font-size="14.00">Mates with B1_NEGJ2(4)</text>
</g>
<!-- W2P2(4)&#45;&#45;W2 -->
<g id="edge3" class="edge">
<title>W2P2(4):e&#45;&#45;W2:w</title>
<path fill="none" stroke="#000000" stroke-width="2" d="M203,-32C272.01,-33.57 281.9,-78.57 347,-77"/>
<path fill="none" stroke="#000000" stroke-width="2" d="M203,-34C270.05,-34 279.95,-79 347,-79"/>
<path fill="none" stroke="#000000" stroke-width="2" d="M203,-36C268.1,-34.43 277.99,-79.43 347,-81"/>
</g>
<!-- W2&#45;&#45;W2P3(5) -->
<g id="edge2" class="edge">
<title>W2:e&#45;&#45;W2P3(5):w</title>
<path fill="none" stroke="#000000" stroke-width="2" d="M613,-102C676.88,-102 692.87,-101 757,-101"/>
<path fill="none" stroke="#ff0000" stroke-width="2" d="M613,-104C677,-104 693,-103 757,-103"/>
<path fill="none" stroke="#000000" stroke-width="2" d="M613,-106C677.13,-106 693.12,-105 757,-105"/>
</g>
<!-- W2&#45;&#45;W2P3(5) -->
<g id="edge4" class="edge">
<title>W2:e&#45;&#45;W2P3(5):w</title>
<path fill="none" stroke="#000000" stroke-width="2" d="M613,-77C677.13,-77 693.12,-78 757,-78"/>
<path fill="none" stroke="#000000" stroke-width="2" d="M613,-79C677,-79 693,-80 757,-80"/>
<path fill="none" stroke="#000000" stroke-width="2" d="M613,-81C676.88,-81 692.87,-82 757,-82"/>
</g>
</g>
</svg>
