<?xml version="1.0" encoding="UTF-8" standalone="no"?>
<!DOCTYPE svg PUBLIC "-//W3C//DTD SVG 1.1//EN"
 "http://www.w3.org/Graphics/SVG/1.1/DTD/svg11.dtd">
<!-- Generated by graphviz version 2.43.0 (0)
 -->
<!-- Title: %3 Pages: 1 -->
<svg width="977pt" height="152pt"
 viewBox="0.00 0.00 977.00 151.50" xmlns="http://www.w3.org/2000/svg" xmlns:xlink="http://www.w3.org/1999/xlink">
<g id="graph0" class="graph" transform="scale(1 1) rotate(0) translate(4 147.5)">
<title>%3</title>
<polygon fill="#ffffff" stroke="transparent" points="-4,4 -4,-147.5 973,-147.5 973,4 -4,4"/>
<!-- W1P1(1) -->
<g id="node1" class="node">
<title>W1P1(1)</title>
<polygon fill="#ffffff" stroke="black" points="203,-115 0,-115 0,0 203,0 203,-115"/>
<polygon fill="none" stroke="black" points="0.5,-91.5 0.5,-114.5 203.5,-114.5 203.5,-91.5 0.5,-91.5"/>
<text text-anchor="start" x="74.5" y="-99.3" font-family="arial" font-size="14.00">W1P1(1)</text>
<polygon fill="none" stroke="black" points="0.5,-68.5 0.5,-91.5 203.5,-91.5 203.5,-68.5 0.5,-68.5"/>
<text text-anchor="start" x="13" y="-76.3" font-family="arial" font-size="14.00">Harbor Freight: 67686, 61982</text>
<polygon fill="none" stroke="black" points="0.5,-45.5 0.5,-68.5 114.5,-68.5 114.5,-45.5 0.5,-45.5"/>
<text text-anchor="start" x="4.5" y="-53.3" font-family="arial" font-size="14.00">F2 0.25in (spade)</text>
<polygon fill="none" stroke="black" points="114.5,-45.5 114.5,-68.5 164.5,-68.5 164.5,-45.5 114.5,-45.5"/>
<text text-anchor="start" x="118.5" y="-53.3" font-family="arial" font-size="14.00">female</text>
<polygon fill="none" stroke="black" points="164.5,-45.5 164.5,-68.5 203.5,-68.5 203.5,-45.5 164.5,-45.5"/>
<text text-anchor="start" x="168.5" y="-53.3" font-family="arial" font-size="14.00">1&#45;pin</text>
<polygon fill="none" stroke="black" points="0.5,-22.5 0.5,-45.5 113.5,-45.5 113.5,-22.5 0.5,-22.5"/>
<text text-anchor="start" x="41.5" y="-30.3" font-family="arial" font-size="14.00">NEG</text>
<polygon fill="none" stroke="black" points="113.5,-22.5 113.5,-45.5 203.5,-45.5 203.5,-22.5 113.5,-22.5"/>
<text text-anchor="start" x="154.5" y="-30.3" font-family="arial" font-size="14.00">1</text>
<polygon fill="none" stroke="black" points="0.5,0.5 0.5,-22.5 203.5,-22.5 203.5,0.5 0.5,0.5"/>
<text text-anchor="start" x="25" y="-7.3" font-family="arial" font-size="14.00">Mates with B1_NEGJ2(1)</text>
</g>
<!-- W1 -->
<g id="node3" class="node">
<title>W1</title>
<polygon fill="#ffffff" stroke="black" points="622,-143.5 347,-143.5 347,-11.5 622,-11.5 622,-143.5"/>
<polygon fill="none" stroke="black" points="347.5,-120.5 347.5,-143.5 622.5,-143.5 622.5,-120.5 347.5,-120.5"/>
<text text-anchor="start" x="474" y="-128.3" font-family="arial" font-size="14.00">W1</text>
<polygon fill="none" stroke="black" points="347.5,-97.5 347.5,-120.5 622.5,-120.5 622.5,-97.5 347.5,-97.5"/>
<text text-anchor="start" x="419" y="-105.3" font-family="arial" font-size="14.00">SouthWire: 22975701</text>
<polygon fill="none" stroke="black" points="347.5,-74.5 347.5,-97.5 420.5,-97.5 420.5,-74.5 347.5,-74.5"/>
<text text-anchor="start" x="376.5" y="-82.3" font-family="arial" font-size="14.00">1x</text>
<polygon fill="none" stroke="black" points="420.5,-74.5 420.5,-97.5 530.5,-97.5 530.5,-74.5 420.5,-74.5"/>
<text text-anchor="start" x="449.5" y="-82.3" font-family="arial" font-size="14.00">10 AWG</text>
<polygon fill="none" stroke="black" points="530.5,-74.5 530.5,-97.5 622.5,-97.5 622.5,-74.5 530.5,-74.5"/>
<text text-anchor="start" x="559" y="-82.3" font-family="arial" font-size="14.00">0.2 m</text>
<text text-anchor="start" x="397.5" y="-61.3" font-family="arial" font-size="14.00"> </text>
<text text-anchor="start" x="349.5" y="-42.3" font-family="arial" font-size="14.00">W1P1(1):1:NEG</text>
<text text-anchor="start" x="453.5" y="-42.3" font-family="arial" font-size="14.00"> &#160;&#160;&#160;&#160;1:BK &#160;&#160;&#160;</text>
<text text-anchor="start" x="521.5" y="-42.3" font-family="arial" font-size="14.00">W1P2(2):1:POS</text>
<polygon fill="#000000" stroke="transparent" points="347.5,-34.5 347.5,-36.5 622.5,-36.5 622.5,-34.5 347.5,-34.5"/>
<polygon fill="#000000" stroke="transparent" points="347.5,-32.5 347.5,-34.5 622.5,-34.5 622.5,-32.5 347.5,-32.5"/>
<polygon fill="#000000" stroke="transparent" points="347.5,-30.5 347.5,-32.5 622.5,-32.5 622.5,-30.5 347.5,-30.5"/>
<text text-anchor="start" x="397.5" y="-17.3" font-family="arial" font-size="14.00"> </text>
</g>
<!-- W1P1(1)&#45;&#45;W1 -->
<g id="edge1" class="edge">
<title>W1P1(1):e&#45;&#45;W1:w</title>
<path fill="none" stroke="#000000" stroke-width="2" d="M203,-31.5C267,-31.5 283,-31.5 347,-31.5"/>
<path fill="none" stroke="#000000" stroke-width="2" d="M203,-33.5C267,-33.5 283,-33.5 347,-33.5"/>
<path fill="none" stroke="#000000" stroke-width="2" d="M203,-35.5C267,-35.5 283,-35.5 347,-35.5"/>
</g>
<!-- W1P2(2) -->
<g id="node2" class="node">
<title>W1P2(2)</title>
<polygon fill="#ffffff" stroke="black" points="969,-115 766,-115 766,0 969,0 969,-115"/>
<polygon fill="none" stroke="black" points="766.5,-91.5 766.5,-114.5 969.5,-114.5 969.5,-91.5 766.5,-91.5"/>
<text text-anchor="start" x="840.5" y="-99.3" font-family="arial" font-size="14.00">W1P2(2)</text>
<polygon fill="none" stroke="black" points="766.5,-68.5 766.5,-91.5 969.5,-91.5 969.5,-68.5 766.5,-68.5"/>
<text text-anchor="start" x="779" y="-76.3" font-family="arial" font-size="14.00">Harbor Freight: 67686, 61982</text>
<polygon fill="none" stroke="black" points="766.5,-45.5 766.5,-68.5 880.5,-68.5 880.5,-45.5 766.5,-45.5"/>
<text text-anchor="start" x="770.5" y="-53.3" font-family="arial" font-size="14.00">F2 0.25in (spade)</text>
<polygon fill="none" stroke="black" points="880.5,-45.5 880.5,-68.5 930.5,-68.5 930.5,-45.5 880.5,-45.5"/>
<text text-anchor="start" x="884.5" y="-53.3" font-family="arial" font-size="14.00">female</text>
<polygon fill="none" stroke="black" points="930.5,-45.5 930.5,-68.5 969.5,-68.5 969.5,-45.5 930.5,-45.5"/>
<text text-anchor="start" x="934.5" y="-53.3" font-family="arial" font-size="14.00">1&#45;pin</text>
<polygon fill="none" stroke="black" points="766.5,-22.5 766.5,-45.5 857.5,-45.5 857.5,-22.5 766.5,-22.5"/>
<text text-anchor="start" x="808" y="-30.3" font-family="arial" font-size="14.00">1</text>
<polygon fill="none" stroke="black" points="857.5,-22.5 857.5,-45.5 969.5,-45.5 969.5,-22.5 857.5,-22.5"/>
<text text-anchor="start" x="898.5" y="-30.3" font-family="arial" font-size="14.00">POS</text>
<polygon fill="none" stroke="black" points="766.5,0.5 766.5,-22.5 969.5,-22.5 969.5,0.5 766.5,0.5"/>
<text text-anchor="start" x="791" y="-7.3" font-family="arial" font-size="14.00">Mates with B2_POSJ1(2)</text>
</g>
<!-- W1&#45;&#45;W1P2(2) -->
<g id="edge2" class="edge">
<title>W1:e&#45;&#45;W1P2(2):w</title>
<path fill="none" stroke="#000000" stroke-width="2" d="M622,-31.5C686,-31.5 702,-31.5 766,-31.5"/>
<path fill="none" stroke="#000000" stroke-width="2" d="M622,-33.5C686,-33.5 702,-33.5 766,-33.5"/>
<path fill="none" stroke="#000000" stroke-width="2" d="M622,-35.5C686,-35.5 702,-35.5 766,-35.5"/>
</g>
</g>
</svg>
