0
SECTION
2
HEADER
9
$INSUNITS
70
4
9
$ACADVER
1
AC1014
9
$HANDSEED
5
FFFF
0
ENDSEC
0
SECTION
2
TABLES
0
TABLE
2
VPORT
5
8
100
AcDbSymbolTable
0
ENDTAB
0
TABLE
2
LTYPE
5
5
100
AcDbSymbolTable
0
LTYPE
5
14
100
AcDbSymbolTableRecord
100
AcDbLinetypeTableRecord
2
BYBLOCK
70
0
0
LTYPE
5
15
100
AcDbSymbolTableRecord
100
AcDbLinetypeTableRecord
2
BYLAYER
70
0
0
ENDTAB
0
TABLE
2
LAYER
5
2
100
AcDbSymbolTable
70
2
0
LAYER
5
50
100
AcDbSymbolTableRecord
100
AcDbLayerTableRecord
2
0
70
0
6
CONTINUOUS
0
ENDTAB
0
TABLE
2
STYLE
5
3
100
AcDbSymbolTable
70
1
0
STYLE
5
11
100
AcDbSymbolTableRecord
100
AcDbTextStyleTableRecord
2
STANDARD
70
0
0
ENDTAB
0
TABLE
2
VIEW
5
6
100
AcDbSymbolTable
70
0
0
ENDTAB
0
TABLE
2
UCS
5
7
100
AcDbSymbolTable
70
0
0
ENDTAB
0
TABLE
2
APPID
5
9
100
AcDbSymbolTable
70
2
0
APPID
5
12
100
AcDbSymbolTableRecord
100
AcDbRegAppTableRecord
2
ACAD
70
0
0
ENDTAB
0
TABLE
2
DIMSTYLE
5
A
100
AcDbSymbolTable
70
1
0
ENDTAB
0
TABLE
2
BLOCK_RECORD
5
1
100
AcDbSymbolTable
70
1
0
BLOCK_RECORD
5
1F
100
AcDbSymbolTableRecord
100
AcDbBlockTableRecord
2
*MODEL_SPACE
0
BLOCK_RECORD
5
1B
100
AcDbSymbolTableRecord
100
AcDbBlockTableRecord
2
*PAPER_SPACE
0
ENDTAB
0
ENDSEC
0
SECTION
2
BLOCKS
0
BLOCK
5
20
100
AcDbEntity
100
AcDbBlockBegin
2
*MODEL_SPACE
0
ENDBLK
5
21
100
AcDbEntity
100
AcDbBlockEnd
0
BLOCK
5
1C
100
AcDbEntity
100
AcDbBlockBegin
2
*PAPER_SPACE
0
ENDBLK
5
1D
100
AcDbEntity
100
AcDbBlockEnd
0
ENDSEC
0
SECTION
2
ENTITIES
0
LWPOLYLINE
5
100
100
AcDbEntity
8
OUTER_PROFILES
100
AcDbPolyline
90
26
70
1
43
0.0
10
265.96283206927438
20
80.960104973243233
10
192.7027723420332
20
6.1705715585684384
10
178.22817143391097
20
20.349161511492539
10
178.14274020801798
20
20.261946710585015
10
178.02065451739742
20
20.261946710584713
10
178.02065451739668
20
-4.4408920985006262e-15
10
0
20
0
10
4.2632564145606011e-13
20
17.999999999999972
10
0.51381443734879184
20
20.26194671058327
10
5.1763195809708407
20
38.410542019339829
10
-12.919803530319278
20
56.136592703652582
10
-14.588419574509999
20
57.705890739039958
10
-29.481745224074523
20
67.814740876222871
10
31.381855295858383
20
157.484823076211
10
48.146731443350816
20
146.10565736593966
10
48.378331827555847
20
146.44687322093017
10
48.666908948600081
20
146.74147505878568
10
34.19230804047789
20
160.92006501170977
10
107.71199888501501
20
235.9746499455178
10
122.18659979313841
20
221.79605999259493
10
127.228318428151
20
241.4207270651336
10
228.4419660201327
20
215.41821037040768
10
223.40024738512039
20
195.79354329787043
10
242.91656692825717
20
201.23962041748541
10
271.00455070428643
20
100.58477204578068
10
251.48823116115099
20
95.138694926166096
0
CIRCLE
5
101
100
AcDbEntity
8
INTERIOR_PROFILES
100
AcDbCircle
10
-150.27458356916898
20
121.14121162089054
30
0
40
44.999999999999993
210
0
220
0
230
-1
0
LINE
5
102
100
AcDbEntity
8
BEND
100
AcDbLine
10
122.46801645672562
20
222.89146192423368
30
4.3997314283368449e-12
11
223.68166404870763
21
196.88894522950926
31
4.4989799754032415e-12
0
LINE
5
103
100
AcDbEntity
8
BEND
100
AcDbLine
10
252.29616872951155
20
94.347279980633246
30
5.2819223612334244e-12
11
179.03610900227039
21
19.557746565958503
31
5.2126488290247625e-12
0
LINE
5
104
100
AcDbEntity
8
BEND
100
AcDbLine
10
224.48960161706782
20
196.09753028397506
30
4.4539283621813776e-12
11
252.57758539309847
21
95.4426819122707
31
4.4680262694989135e-12
0
LINE
5
105
100
AcDbEntity
8
BEND
100
AcDbLine
10
47.858971380240632
20
147.53289000431977
30
5.0719763119137041e-12
11
121.3786622247778
21
222.58747493812777
31
5.1413560774219691e-12
0
LINE
5
106
100
AcDbEntity
8
BEND
100
AcDbLine
10
178.02065451739747
20
19.130973355293328
30
4.9019322160736844e-12
11
0.25690721867459132
21
19.130973355291616
31
4.7990432693393987e-12
0
LINE
5
107
100
AcDbEntity
8
BEND
100
AcDbLine
10
-13.754111552414514
20
56.921241721346156
30
4.9844652025058275e-12
11
47.210956194386995
21
146.74081515248375
31
5.0188301399673744e-12
0
LINE
5
108
100
AcDbEntity
8
BEND_EXTENT
100
AcDbLine
10
4.2632564145606011e-13
20
17.999999999999972
30
5.0270898555027088e-12
11
178.02065451739747
21
17.99999999999995
31
4.5733611967914941e-12
0
LINE
5
109
100
AcDbEntity
8
BEND_EXTENT
100
AcDbLine
10
178.02065451739742
20
20.261946710584713
30
5.1948085348254255e-12
11
0.51381443734879184
21
20.26194671058327
31
5.0275747368286303e-12
0
LINE
5
110
100
AcDbEntity
8
BEND_EXTENT
100
AcDbLine
10
179.84404657062981
20
18.766331620424456
30
5.1968068066459411e-12
11
253.10410629787097
21
93.555865035099188
31
5.3547594029465366e-12
0
LINE
5
111
100
AcDbEntity
8
BEND_EXTENT
100
AcDbLine
10
251.48823116115099
20
95.138694926166096
30
5.26441667646207e-12
11
178.22817143391097
21
20.349161511492539
31
5.1948655884972534e-12
0
LINE
5
112
100
AcDbEntity
8
BEND_EXTENT
100
AcDbLine
10
223.40024738512039
20
195.79354329787043
30
5.2379103391040733e-12
11
251.48823116115099
21
95.138694926166096
31
5.26441667646207e-12
0
LINE
5
113
100
AcDbEntity
8
BEND_EXTENT
100
AcDbLine
10
122.18659979313841
20
221.79605999259493
30
5.1423960754353528e-12
11
223.40024738512039
21
195.79354329787043
31
5.2379103391040733e-12
0
LINE
5
114
100
AcDbEntity
8
BEND_EXTENT
100
AcDbLine
10
48.666908948600081
20
146.74147505878568
30
5.0727387541709299e-12
11
122.18659979313841
21
221.79605999259493
31
5.1423960754353528e-12
0
LINE
5
115
100
AcDbEntity
8
BEND_EXTENT
100
AcDbLine
10
253.66693962504581
20
95.746668898374907
30
3.6499879770633256e-12
11
225.57895584901519
21
196.40151727007924
31
3.5524273661293177e-12
0
LINE
5
116
100
AcDbEntity
8
BEND_EXTENT
100
AcDbLine
10
223.96308071229524
20
197.98434716114784
30
3.7107745971608865e-12
11
122.74943312031326
21
223.98686385587234
31
3.5974967650981639e-12
0
LINE
5
117
100
AcDbEntity
8
BEND_EXTENT
100
AcDbLine
10
120.57072465641841
20
223.37888988366183
30
5.158634759314902e-12
11
47.051033811881254
21
148.3243049498538
31
5.0714914254126337e-12
0
LINE
5
118
100
AcDbEntity
8
BEND_EXTENT
100
AcDbLine
10
46.275180945422946
20
147.37597293902809
30
4.9997049875779677e-12
11
-14.588419574509999
21
57.705890739039951
31
5.0133229160938372e-12
0
LINE
5
119
100
AcDbEntity
8
BEND_EXTENT
100
AcDbLine
10
-12.919803530319278
20
56.136592703652582
30
5.0148975716526333e-12
11
48.146731443350816
21
146.10565736593966
31
5.0719703123280357e-12
0
ENDSEC
0
SECTION
2
OBJECTS
0
DICTIONARY
5
C
100
AcDbDictionary
3
ACAD_GROUP
350
D
3
ACAD_MLINESTYLE
350
17
0
DICTIONARY
5
D
100
AcDbDictionary
0
DICTIONARY
5
1A
330
C
100
AcDbDictionary
0
DICTIONARY
5
17
100
AcDbDictionary
0
ENDSEC
0
EOF
