<?xml version="1.0" encoding="UTF-8" standalone="no"?>
<!DOCTYPE svg PUBLIC "-//W3C//DTD SVG 1.1//EN"
 "http://www.w3.org/Graphics/SVG/1.1/DTD/svg11.dtd">
<!-- Generated by graphviz version 2.43.0 (0)
 -->
<!-- Title: %3 Pages: 1 -->
<svg width="919pt" height="223pt"
 viewBox="0.00 0.00 919.00 222.50" xmlns="http://www.w3.org/2000/svg" xmlns:xlink="http://www.w3.org/1999/xlink">
<g id="graph0" class="graph" transform="scale(1 1) rotate(0) translate(4 218.5)">
<title>%3</title>
<polygon fill="#ffffff" stroke="transparent" points="-4,4 -4,-218.5 915,-218.5 915,4 -4,4"/>
<!-- W2P1(3) -->
<g id="node1" class="node">
<title>W2P1(3)</title>
<polygon fill="#ffffff" stroke="black" points="217,-208 0,-208 0,-116 217,-116 217,-208"/>
<polygon fill="none" stroke="black" points="0.5,-185 0.5,-208 217.5,-208 217.5,-185 0.5,-185"/>
<text text-anchor="start" x="81.5" y="-192.8" font-family="arial" font-size="14.00">W2P1(3)</text>
<polygon fill="none" stroke="black" points="0.5,-162 0.5,-185 128.5,-185 128.5,-162 0.5,-162"/>
<text text-anchor="start" x="4.5" y="-169.8" font-family="arial" font-size="14.00">Disconnector 0.25in</text>
<polygon fill="none" stroke="black" points="128.5,-162 128.5,-185 178.5,-185 178.5,-162 128.5,-162"/>
<text text-anchor="start" x="132.5" y="-169.8" font-family="arial" font-size="14.00">female</text>
<polygon fill="none" stroke="black" points="178.5,-162 178.5,-185 217.5,-185 217.5,-162 178.5,-162"/>
<text text-anchor="start" x="182.5" y="-169.8" font-family="arial" font-size="14.00">1&#45;pin</text>
<polygon fill="none" stroke="black" points="0.5,-139 0.5,-162 120.5,-162 120.5,-139 0.5,-139"/>
<text text-anchor="start" x="45.5" y="-146.8" font-family="arial" font-size="14.00">POS</text>
<polygon fill="none" stroke="black" points="120.5,-139 120.5,-162 217.5,-162 217.5,-139 120.5,-139"/>
<text text-anchor="start" x="165" y="-146.8" font-family="arial" font-size="14.00">1</text>
<polygon fill="none" stroke="black" points="0.5,-116 0.5,-139 217.5,-139 217.5,-116 0.5,-116"/>
<text text-anchor="start" x="74" y="-123.8" font-family="arial" font-size="14.00">BAT1_POS</text>
</g>
<!-- W2 -->
<g id="node4" class="node">
<title>W2</title>
<polygon fill="#ffffff" stroke="black" stroke-dasharray="5,2" points="627,-214.5 361,-214.5 361,-57.5 627,-57.5 627,-214.5"/>
<polygon fill="none" stroke="black" points="361,-191 361,-214 627,-214 627,-191 361,-191"/>
<text text-anchor="start" x="483" y="-198.8" font-family="arial" font-size="14.00">W2</text>
<polygon fill="none" stroke="black" points="361,-168 361,-191 627,-191 627,-168 361,-168"/>
<text text-anchor="start" x="462" y="-175.8" font-family="arial" font-size="14.00">SouthWire</text>
<polygon fill="none" stroke="black" points="361,-145 361,-168 431,-168 431,-145 361,-145"/>
<text text-anchor="start" x="388.5" y="-152.8" font-family="arial" font-size="14.00">2x</text>
<polygon fill="none" stroke="black" points="431,-145 431,-168 538,-168 538,-145 431,-145"/>
<text text-anchor="start" x="458.5" y="-152.8" font-family="arial" font-size="14.00">10 AWG</text>
<polygon fill="none" stroke="black" points="538,-145 538,-168 627,-168 627,-145 538,-145"/>
<text text-anchor="start" x="565" y="-152.8" font-family="arial" font-size="14.00">0.2 m</text>
<text text-anchor="start" x="411" y="-131.8" font-family="arial" font-size="14.00"> </text>
<text text-anchor="start" x="363.5" y="-112.8" font-family="arial" font-size="14.00">W2P1(3):1:POS</text>
<text text-anchor="start" x="467" y="-112.8" font-family="arial" font-size="14.00"> &#160;&#160;&#160;&#160;RD &#160;&#160;&#160;</text>
<text text-anchor="start" x="525.5" y="-112.8" font-family="arial" font-size="14.00">W2P3(5):1:POS</text>
<polygon fill="#000000" stroke="transparent" points="361,-105 361,-107 627,-107 627,-105 361,-105"/>
<polygon fill="#ff0000" stroke="transparent" points="361,-103 361,-105 627,-105 627,-103 361,-103"/>
<polygon fill="#000000" stroke="transparent" points="361,-101 361,-103 627,-103 627,-101 361,-101"/>
<text text-anchor="start" x="363" y="-87.8" font-family="arial" font-size="14.00">W2P2(4):1:NEG</text>
<text text-anchor="start" x="468" y="-87.8" font-family="arial" font-size="14.00"> &#160;&#160;&#160;&#160;BK &#160;&#160;&#160;</text>
<text text-anchor="start" x="525" y="-87.8" font-family="arial" font-size="14.00">W2P3(5):2:NEG</text>
<polygon fill="#000000" stroke="transparent" points="361,-80 361,-82 627,-82 627,-80 361,-80"/>
<polygon fill="#000000" stroke="transparent" points="361,-78 361,-80 627,-80 627,-78 361,-78"/>
<polygon fill="#000000" stroke="transparent" points="361,-76 361,-78 627,-78 627,-76 361,-76"/>
<text text-anchor="start" x="411" y="-62.8" font-family="arial" font-size="14.00"> </text>
</g>
<!-- W2P1(3)&#45;&#45;W2 -->
<g id="edge1" class="edge">
<title>W2P1(3):e&#45;&#45;W2:w</title>
<path fill="none" stroke="#000000" stroke-width="2" d="M217,-148C282.23,-149.59 291.86,-103.59 361,-102"/>
<path fill="none" stroke="#ff0000" stroke-width="2" d="M217,-150C284.19,-150 293.81,-104 361,-104"/>
<path fill="none" stroke="#000000" stroke-width="2" d="M217,-152C286.14,-150.41 295.77,-104.41 361,-106"/>
</g>
<!-- W2P2(4) -->
<g id="node2" class="node">
<title>W2P2(4)</title>
<polygon fill="#ffffff" stroke="black" points="217,-92 0,-92 0,0 217,0 217,-92"/>
<polygon fill="none" stroke="black" points="0.5,-69 0.5,-92 217.5,-92 217.5,-69 0.5,-69"/>
<text text-anchor="start" x="81.5" y="-76.8" font-family="arial" font-size="14.00">W2P2(4)</text>
<polygon fill="none" stroke="black" points="0.5,-46 0.5,-69 128.5,-69 128.5,-46 0.5,-46"/>
<text text-anchor="start" x="4.5" y="-53.8" font-family="arial" font-size="14.00">Disconnector 0.25in</text>
<polygon fill="none" stroke="black" points="128.5,-46 128.5,-69 178.5,-69 178.5,-46 128.5,-46"/>
<text text-anchor="start" x="132.5" y="-53.8" font-family="arial" font-size="14.00">female</text>
<polygon fill="none" stroke="black" points="178.5,-46 178.5,-69 217.5,-69 217.5,-46 178.5,-46"/>
<text text-anchor="start" x="182.5" y="-53.8" font-family="arial" font-size="14.00">1&#45;pin</text>
<polygon fill="none" stroke="black" points="0.5,-23 0.5,-46 120.5,-46 120.5,-23 0.5,-23"/>
<text text-anchor="start" x="45" y="-30.8" font-family="arial" font-size="14.00">NEG</text>
<polygon fill="none" stroke="black" points="120.5,-23 120.5,-46 217.5,-46 217.5,-23 120.5,-23"/>
<text text-anchor="start" x="165" y="-30.8" font-family="arial" font-size="14.00">1</text>
<polygon fill="none" stroke="black" points="0.5,0 0.5,-23 217.5,-23 217.5,0 0.5,0"/>
<text text-anchor="start" x="73.5" y="-7.8" font-family="arial" font-size="14.00">BAT2_NEG</text>
</g>
<!-- W2P2(4)&#45;&#45;W2 -->
<g id="edge3" class="edge">
<title>W2P2(4):e&#45;&#45;W2:w</title>
<path fill="none" stroke="#000000" stroke-width="2" d="M217,-32C286.01,-33.57 295.9,-78.57 361,-77"/>
<path fill="none" stroke="#000000" stroke-width="2" d="M217,-34C284.05,-34 293.95,-79 361,-79"/>
<path fill="none" stroke="#000000" stroke-width="2" d="M217,-36C282.1,-34.43 291.99,-79.43 361,-81"/>
</g>
<!-- W2P3(5) -->
<g id="node3" class="node">
<title>W2P3(5)</title>
<polygon fill="#ffffff" stroke="black" points="911,-161 771,-161 771,-69 911,-69 911,-161"/>
<polygon fill="none" stroke="black" points="771,-138 771,-161 911,-161 911,-138 771,-138"/>
<text text-anchor="start" x="813.5" y="-145.8" font-family="arial" font-size="14.00">W2P3(5)</text>
<polygon fill="none" stroke="black" points="771,-115 771,-138 822,-138 822,-115 771,-115"/>
<text text-anchor="start" x="775" y="-122.8" font-family="arial" font-size="14.00">XTC90</text>
<polygon fill="none" stroke="black" points="822,-115 822,-138 872,-138 872,-115 822,-115"/>
<text text-anchor="start" x="826" y="-122.8" font-family="arial" font-size="14.00">female</text>
<polygon fill="none" stroke="black" points="872,-115 872,-138 911,-138 911,-115 872,-115"/>
<text text-anchor="start" x="876" y="-122.8" font-family="arial" font-size="14.00">2&#45;pin</text>
<polygon fill="none" stroke="black" points="771,-92 771,-115 830,-115 830,-92 771,-92"/>
<text text-anchor="start" x="796.5" y="-99.8" font-family="arial" font-size="14.00">1</text>
<polygon fill="none" stroke="black" points="830,-92 830,-115 911,-115 911,-92 830,-92"/>
<text text-anchor="start" x="855.5" y="-99.8" font-family="arial" font-size="14.00">POS</text>
<polygon fill="none" stroke="black" points="771,-69 771,-92 830,-92 830,-69 771,-69"/>
<text text-anchor="start" x="796.5" y="-76.8" font-family="arial" font-size="14.00">2</text>
<polygon fill="none" stroke="black" points="830,-69 830,-92 911,-92 911,-69 830,-69"/>
<text text-anchor="start" x="855" y="-76.8" font-family="arial" font-size="14.00">NEG</text>
</g>
<!-- W2&#45;&#45;W2P3(5) -->
<g id="edge2" class="edge">
<title>W2:e&#45;&#45;W2P3(5):w</title>
<path fill="none" stroke="#000000" stroke-width="2" d="M627,-102C690.88,-102 706.87,-101 771,-101"/>
<path fill="none" stroke="#ff0000" stroke-width="2" d="M627,-104C691,-104 707,-103 771,-103"/>
<path fill="none" stroke="#000000" stroke-width="2" d="M627,-106C691.13,-106 707.12,-105 771,-105"/>
</g>
<!-- W2&#45;&#45;W2P3(5) -->
<g id="edge4" class="edge">
<title>W2:e&#45;&#45;W2P3(5):w</title>
<path fill="none" stroke="#000000" stroke-width="2" d="M627,-77C691.13,-77 707.12,-78 771,-78"/>
<path fill="none" stroke="#000000" stroke-width="2" d="M627,-79C691,-79 707,-80 771,-80"/>
<path fill="none" stroke="#000000" stroke-width="2" d="M627,-81C690.88,-81 706.87,-82 771,-82"/>
</g>
</g>
</svg>
