<?xml version="1.0" encoding="UTF-8" standalone="no"?>
<!DOCTYPE svg PUBLIC "-//W3C//DTD SVG 1.1//EN"
 "http://www.w3.org/Graphics/SVG/1.1/DTD/svg11.dtd">
<!-- Generated by graphviz version 2.43.0 (0)
 -->
<!-- Title: %3 Pages: 1 -->
<svg width="1005pt" height="152pt"
 viewBox="0.00 0.00 1005.00 152.00" xmlns="http://www.w3.org/2000/svg" xmlns:xlink="http://www.w3.org/1999/xlink">
<g id="graph0" class="graph" transform="scale(1 1) rotate(0) translate(4 148)">
<title>%3</title>
<polygon fill="#ffffff" stroke="transparent" points="-4,4 -4,-148 1001,-148 1001,4 -4,4"/>
<!-- W1P1(1) -->
<g id="node1" class="node">
<title>W1P1(1)</title>
<polygon fill="#ffffff" stroke="black" points="217,-92 0,-92 0,0 217,0 217,-92"/>
<polygon fill="none" stroke="black" points="0.5,-69 0.5,-92 217.5,-92 217.5,-69 0.5,-69"/>
<text text-anchor="start" x="81.5" y="-76.8" font-family="arial" font-size="14.00">W1P1(1)</text>
<polygon fill="none" stroke="black" points="0.5,-46 0.5,-69 128.5,-69 128.5,-46 0.5,-46"/>
<text text-anchor="start" x="4.5" y="-53.8" font-family="arial" font-size="14.00">Disconnector 0.25in</text>
<polygon fill="none" stroke="black" points="128.5,-46 128.5,-69 178.5,-69 178.5,-46 128.5,-46"/>
<text text-anchor="start" x="132.5" y="-53.8" font-family="arial" font-size="14.00">female</text>
<polygon fill="none" stroke="black" points="178.5,-46 178.5,-69 217.5,-69 217.5,-46 178.5,-46"/>
<text text-anchor="start" x="182.5" y="-53.8" font-family="arial" font-size="14.00">1&#45;pin</text>
<polygon fill="none" stroke="black" points="0.5,-23 0.5,-46 120.5,-46 120.5,-23 0.5,-23"/>
<text text-anchor="start" x="45" y="-30.8" font-family="arial" font-size="14.00">NEG</text>
<polygon fill="none" stroke="black" points="120.5,-23 120.5,-46 217.5,-46 217.5,-23 120.5,-23"/>
<text text-anchor="start" x="165" y="-30.8" font-family="arial" font-size="14.00">1</text>
<polygon fill="none" stroke="black" points="0.5,0 0.5,-23 217.5,-23 217.5,0 0.5,0"/>
<text text-anchor="start" x="30.5" y="-7.8" font-family="arial" font-size="14.00">Mates with BAT1_NEG(1)</text>
</g>
<!-- W1 -->
<g id="node3" class="node">
<title>W1</title>
<polygon fill="#ffffff" stroke="black" points="636,-144 361,-144 361,-12 636,-12 636,-144"/>
<polygon fill="none" stroke="black" points="361.5,-121 361.5,-144 636.5,-144 636.5,-121 361.5,-121"/>
<text text-anchor="start" x="488" y="-128.8" font-family="arial" font-size="14.00">W1</text>
<polygon fill="none" stroke="black" points="361.5,-98 361.5,-121 636.5,-121 636.5,-98 361.5,-98"/>
<text text-anchor="start" x="467" y="-105.8" font-family="arial" font-size="14.00">SouthWire</text>
<polygon fill="none" stroke="black" points="361.5,-75 361.5,-98 434.5,-98 434.5,-75 361.5,-75"/>
<text text-anchor="start" x="390.5" y="-82.8" font-family="arial" font-size="14.00">1x</text>
<polygon fill="none" stroke="black" points="434.5,-75 434.5,-98 544.5,-98 544.5,-75 434.5,-75"/>
<text text-anchor="start" x="463.5" y="-82.8" font-family="arial" font-size="14.00">10 AWG</text>
<polygon fill="none" stroke="black" points="544.5,-75 544.5,-98 636.5,-98 636.5,-75 544.5,-75"/>
<text text-anchor="start" x="573" y="-82.8" font-family="arial" font-size="14.00">0.2 m</text>
<text text-anchor="start" x="411.5" y="-61.8" font-family="arial" font-size="14.00"> </text>
<text text-anchor="start" x="363.5" y="-42.8" font-family="arial" font-size="14.00">W1P1(1):1:NEG</text>
<text text-anchor="start" x="467.5" y="-42.8" font-family="arial" font-size="14.00"> &#160;&#160;&#160;&#160;1:BK &#160;&#160;&#160;</text>
<text text-anchor="start" x="535.5" y="-42.8" font-family="arial" font-size="14.00">W1P2(2):1:POS</text>
<polygon fill="#000000" stroke="transparent" points="361.5,-35 361.5,-37 636.5,-37 636.5,-35 361.5,-35"/>
<polygon fill="#000000" stroke="transparent" points="361.5,-33 361.5,-35 636.5,-35 636.5,-33 361.5,-33"/>
<polygon fill="#000000" stroke="transparent" points="361.5,-31 361.5,-33 636.5,-33 636.5,-31 361.5,-31"/>
<text text-anchor="start" x="411.5" y="-17.8" font-family="arial" font-size="14.00"> </text>
</g>
<!-- W1P1(1)&#45;&#45;W1 -->
<g id="edge1" class="edge">
<title>W1P1(1):e&#45;&#45;W1:w</title>
<path fill="none" stroke="#000000" stroke-width="2" d="M217,-32C281,-32 297,-32 361,-32"/>
<path fill="none" stroke="#000000" stroke-width="2" d="M217,-34C281,-34 297,-34 361,-34"/>
<path fill="none" stroke="#000000" stroke-width="2" d="M217,-36C281,-36 297,-36 361,-36"/>
</g>
<!-- W1P2(2) -->
<g id="node2" class="node">
<title>W1P2(2)</title>
<polygon fill="#ffffff" stroke="black" points="997,-92 780,-92 780,0 997,0 997,-92"/>
<polygon fill="none" stroke="black" points="780.5,-69 780.5,-92 997.5,-92 997.5,-69 780.5,-69"/>
<text text-anchor="start" x="861.5" y="-76.8" font-family="arial" font-size="14.00">W1P2(2)</text>
<polygon fill="none" stroke="black" points="780.5,-46 780.5,-69 908.5,-69 908.5,-46 780.5,-46"/>
<text text-anchor="start" x="784.5" y="-53.8" font-family="arial" font-size="14.00">Disconnector 0.25in</text>
<polygon fill="none" stroke="black" points="908.5,-46 908.5,-69 958.5,-69 958.5,-46 908.5,-46"/>
<text text-anchor="start" x="912.5" y="-53.8" font-family="arial" font-size="14.00">female</text>
<polygon fill="none" stroke="black" points="958.5,-46 958.5,-69 997.5,-69 997.5,-46 958.5,-46"/>
<text text-anchor="start" x="962.5" y="-53.8" font-family="arial" font-size="14.00">1&#45;pin</text>
<polygon fill="none" stroke="black" points="780.5,-23 780.5,-46 878.5,-46 878.5,-23 780.5,-23"/>
<text text-anchor="start" x="825.5" y="-30.8" font-family="arial" font-size="14.00">1</text>
<polygon fill="none" stroke="black" points="878.5,-23 878.5,-46 997.5,-46 997.5,-23 878.5,-23"/>
<text text-anchor="start" x="923" y="-30.8" font-family="arial" font-size="14.00">POS</text>
<polygon fill="none" stroke="black" points="780.5,0 780.5,-23 997.5,-23 997.5,0 780.5,0"/>
<text text-anchor="start" x="807.5" y="-7.8" font-family="arial" font-size="14.00">Mates w2ith BAT2_POS(2)</text>
</g>
<!-- W1&#45;&#45;W1P2(2) -->
<g id="edge2" class="edge">
<title>W1:e&#45;&#45;W1P2(2):w</title>
<path fill="none" stroke="#000000" stroke-width="2" d="M636,-32C700,-32 716,-32 780,-32"/>
<path fill="none" stroke="#000000" stroke-width="2" d="M636,-34C700,-34 716,-34 780,-34"/>
<path fill="none" stroke="#000000" stroke-width="2" d="M636,-36C700,-36 716,-36 780,-36"/>
</g>
</g>
</svg>
