0
SECTION
2
HEADER
9
$INSUNITS
70
4
9
$ACADVER
1
AC1014
9
$HANDSEED
5
FFFF
0
ENDSEC
0
SECTION
2
TABLES
0
TABLE
2
VPORT
5
8
100
AcDbSymbolTable
0
ENDTAB
0
TABLE
2
LTYPE
5
5
100
AcDbSymbolTable
0
LTYPE
5
14
100
AcDbSymbolTableRecord
100
AcDbLinetypeTableRecord
2
BYBLOCK
70
0
0
LTYPE
5
15
100
AcDbSymbolTableRecord
100
AcDbLinetypeTableRecord
2
BYLAYER
70
0
0
ENDTAB
0
TABLE
2
LAYER
5
2
100
AcDbSymbolTable
70
2
0
LAYER
5
50
100
AcDbSymbolTableRecord
100
AcDbLayerTableRecord
2
0
70
0
6
CONTINUOUS
0
ENDTAB
0
TABLE
2
STYLE
5
3
100
AcDbSymbolTable
70
1
0
STYLE
5
11
100
AcDbSymbolTableRecord
100
AcDbTextStyleTableRecord
2
STANDARD
70
0
0
ENDTAB
0
TABLE
2
VIEW
5
6
100
AcDbSymbolTable
70
0
0
ENDTAB
0
TABLE
2
UCS
5
7
100
AcDbSymbolTable
70
0
0
ENDTAB
0
TABLE
2
APPID
5
9
100
AcDbSymbolTable
70
2
0
APPID
5
12
100
AcDbSymbolTableRecord
100
AcDbRegAppTableRecord
2
ACAD
70
0
0
ENDTAB
0
TABLE
2
DIMSTYLE
5
A
100
AcDbSymbolTable
70
1
0
ENDTAB
0
TABLE
2
BLOCK_RECORD
5
1
100
AcDbSymbolTable
70
1
0
BLOCK_RECORD
5
1F
100
AcDbSymbolTableRecord
100
AcDbBlockTableRecord
2
*MODEL_SPACE
0
BLOCK_RECORD
5
1B
100
AcDbSymbolTableRecord
100
AcDbBlockTableRecord
2
*PAPER_SPACE
0
ENDTAB
0
ENDSEC
0
SECTION
2
BLOCKS
0
BLOCK
5
20
100
AcDbEntity
100
AcDbBlockBegin
2
*MODEL_SPACE
0
ENDBLK
5
21
100
AcDbEntity
100
AcDbBlockEnd
0
BLOCK
5
1C
100
AcDbEntity
100
AcDbBlockBegin
2
*PAPER_SPACE
0
ENDBLK
5
1D
100
AcDbEntity
100
AcDbBlockEnd
0
ENDSEC
0
SECTION
2
ENTITIES
0
CIRCLE
5
100
100
AcDbEntity
8
0
100
AcDbCircle
10
-91.559999999999945
20
-208.7281741246415
30
0
40
2.9999999999999893
210
0
220
0
230
1
0
CIRCLE
5
101
100
AcDbEntity
8
0
100
AcDbCircle
10
49
20
-514.28750000000002
30
0
40
3.1749999999999989
210
0
220
0
230
1
0
LWPOLYLINE
5
102
100
AcDbEntity
8
0
100
AcDbPolyline
90
4
70
1
43
0.0
10
46.560000000000066
20
-263.42817412464183
42
-0.99999999999999989
10
52.560000000000066
20
-263.42817412464177
10
52.560000000000066
20
-272.72817412464184
42
-0.99999999999999989
10
46.560000000000066
20
-272.72817412464173
0
CIRCLE
5
103
100
AcDbEntity
8
0
100
AcDbCircle
10
-74.250000000000099
20
-617.69999999999993
30
0
40
3.0000000000000071
210
0
220
0
230
1
0
CIRCLE
5
104
100
AcDbEntity
8
0
100
AcDbCircle
10
74.250000000000085
20
-617.69999999999993
30
0
40
3.0000000000000071
210
0
220
0
230
1
0
LWPOLYLINE
5
105
100
AcDbEntity
8
0
100
AcDbPolyline
90
4
70
1
43
0.0
10
-140.63180000000006
20
-320.22817412464178
42
-0.99999999999999989
10
-146.63180000000008
20
-320.22817412464178
10
-146.63180000000008
20
-310.92817412464177
42
-0.99999999999999989
10
-140.63180000000006
20
-310.92817412464177
0
LWPOLYLINE
5
106
100
AcDbEntity
8
0
100
AcDbPolyline
90
4
70
1
43
0.0
10
-154.63180000000006
20
-320.22817412464178
42
-0.99999999999999989
10
-160.63180000000006
20
-320.22817412464178
10
-160.63180000000006
20
-310.92817412464177
42
-0.99999999999999989
10
-154.63180000000006
20
-310.92817412464177
0
LWPOLYLINE
5
107
100
AcDbEntity
8
0
100
AcDbPolyline
90
4
70
1
43
0.0
10
160.6318
20
-320.22817412464173
42
-0.99999999999999989
10
154.63179999999997
20
-320.22817412464173
10
154.63179999999997
20
-310.92817412464171
42
-0.99999999999999989
10
160.6318
20
-310.92817412464171
0
LWPOLYLINE
5
108
100
AcDbEntity
8
0
100
AcDbPolyline
90
4
70
1
43
0.0
10
-46.560000000000159
20
-272.72817412464184
42
-0.99999999999999989
10
-52.560000000000151
20
-272.72817412464184
10
-52.560000000000151
20
-263.42817412464183
42
-0.99999999999999989
10
-46.560000000000159
20
-263.42817412464183
0
LWPOLYLINE
5
109
100
AcDbEntity
8
0
100
AcDbPolyline
90
4
70
1
43
0.0
10
140.6318
20
-310.92817412464177
42
-0.99999999999999989
10
146.6318
20
-310.92817412464171
10
146.6318
20
-320.22817412464173
42
-0.99999999999999989
10
140.6318
20
-320.22817412464184
0
LWPOLYLINE
5
110
100
AcDbEntity
8
0
100
AcDbPolyline
90
4
70
1
43
0.0
10
46.560000000000102
20
-358.42817412464177
42
-0.99999999999999989
10
52.560000000000102
20
-358.42817412464177
10
52.560000000000102
20
-367.72817412464178
42
-0.99999999999999989
10
46.560000000000102
20
-367.72817412464178
0
LWPOLYLINE
5
111
100
AcDbEntity
8
0
100
AcDbPolyline
90
4
70
1
43
0.0
10
88.560000000000144
20
-358.42817412464177
42
-0.99999999999999989
10
94.560000000000116
20
-358.42817412464177
10
94.560000000000116
20
-367.72817412464178
42
-0.99999999999999989
10
88.560000000000144
20
-367.72817412464178
0
LWPOLYLINE
5
112
100
AcDbEntity
8
0
100
AcDbPolyline
90
4
70
1
43
0.0
10
88.560000000000102
20
-263.42817412464183
42
-0.99999999999999989
10
94.560000000000088
20
-263.42817412464177
10
94.560000000000088
20
-272.72817412464173
42
-0.99999999999999989
10
88.560000000000102
20
-272.72817412464184
0
CIRCLE
5
113
100
AcDbEntity
8
0
100
AcDbCircle
10
91.559999999999846
20
-208.72817412464147
30
0
40
2.9999999999999893
210
0
220
0
230
1
0
CIRCLE
5
114
100
AcDbEntity
8
0
100
AcDbCircle
10
49
20
-485.71249999999998
30
0
40
3.1749999999999989
210
0
220
0
230
1
0
CIRCLE
5
115
100
AcDbEntity
8
0
100
AcDbCircle
10
-32.5
20
-250.00000000000043
30
0
40
6.3500000000000068
210
0
220
0
230
1
0
CIRCLE
5
116
100
AcDbEntity
8
0
100
AcDbCircle
10
32.5
20
-250.00000000000043
30
0
40
6.3499999999999979
210
0
220
0
230
1
0
CIRCLE
5
117
100
AcDbEntity
8
0
100
AcDbCircle
10
-49
20
-485.71249999999998
30
0
40
3.1749999999999989
210
0
220
0
230
1
0
CIRCLE
5
118
100
AcDbEntity
8
0
100
AcDbCircle
10
-49
20
-514.28750000000002
30
0
40
3.1749999999999989
210
0
220
0
230
1
0
LWPOLYLINE
5
119
100
AcDbEntity
8
0
100
AcDbPolyline
90
4
70
1
43
0.0
10
-52.560000000000151
20
-358.42817412464183
42
-0.99999999999999989
10
-46.560000000000159
20
-358.42817412464183
10
-46.560000000000159
20
-367.72817412464178
42
-0.99999999999999989
10
-52.560000000000151
20
-367.72817412464178
0
LWPOLYLINE
5
120
100
AcDbEntity
8
0
100
AcDbPolyline
90
4
70
1
43
0.0
10
-94.560000000000173
20
-358.42817412464183
42
-0.99999999999999989
10
-88.560000000000159
20
-358.42817412464183
10
-88.560000000000173
20
-367.72817412464178
42
-0.99999999999999989
10
-94.560000000000159
20
-367.72817412464178
0
LWPOLYLINE
5
121
100
AcDbEntity
8
0
100
AcDbPolyline
90
4
70
1
43
0.0
10
-94.560000000000173
20
-263.42817412464183
42
-0.99999999999999989
10
-88.560000000000159
20
-263.42817412464183
10
-88.560000000000173
20
-272.72817412464184
42
-0.99999999999999989
10
-94.560000000000159
20
-272.72817412464184
0
LWPOLYLINE
5
122
100
AcDbEntity
8
0
100
AcDbPolyline
90
20
70
1
43
0.0
10
219.9999999999996
20
-779.99999999999977
10
-219.9999999999996
20
-779.99999999999977
10
-220.00000000000003
20
-647.99999999999966
10
-105.00000000000014
20
-647.99999999999977
10
-105.00000000000006
20
-597.99999999999977
10
-85.000000000000199
20
-597.99999999999966
10
-85.000000000000128
20
-401.99999999999977
10
-105.00000000000013
20
-401.99999999999977
10
-105.00000000000001
20
-351.99999999999977
10
-220.00000000000003
20
-352
10
-220.00000000000006
20
-180.00000000000003
10
219.99999999999994
20
-179.99999999999994
10
219.99999999999997
20
-351.99999999999994
10
104.99999999999994
20
-351.99999999999966
10
105.00000000000009
20
-401.99999999999966
10
85.000000000000085
20
-401.99999999999966
10
85.000000000000156
20
-597.99999999999966
10
105.00000000000009
20
-597.99999999999966
10
105.00000000000014
20
-647.99999999999977
10
220.00000000000003
20
-647.99999999999966
0
ENDSEC
0
SECTION
2
OBJECTS
0
DICTIONARY
5
C
100
AcDbDictionary
3
ACAD_GROUP
350
D
3
ACAD_MLINESTYLE
350
17
0
DICTIONARY
5
D
100
AcDbDictionary
0
DICTIONARY
5
1A
330
C
100
AcDbDictionary
0
DICTIONARY
5
17
100
AcDbDictionary
0
ENDSEC
0
EOF
